<svg width="26" height="22" viewBox="0 0 26 22" fill="none" xmlns="http://www.w3.org/2000/svg">
<g clip-path="url(#clip0_3_83)">
<path d="M13.2542 21.4945C16.5477 21.4945 19.7063 20.3689 22.0351 18.3655C24.3639 16.3621 25.6723 13.6448 25.6723 10.8115C25.6723 7.97824 24.3639 5.261 22.0351 3.25756C19.7063 1.25412 16.5477 0.128601 13.2542 0.128601C9.96072 0.128601 6.80213 1.25412 4.47329 3.25756C2.14445 5.261 0.836121 7.97824 0.836121 10.8115C0.836121 13.6448 2.14445 16.3621 4.47329 18.3655C6.80213 20.3689 9.96072 21.4945 13.2542 21.4945ZM15.7136 13.6951L8.71384 16.0111C7.77278 16.3241 6.84627 15.527 7.21009 14.7175L9.90228 8.69581C10.0624 8.3411 10.3825 8.06568 10.7948 7.92797L17.7946 5.61195C18.7356 5.29897 19.6621 6.09602 19.2983 6.90558L16.6061 12.9272C16.4509 13.282 16.1259 13.5574 15.7136 13.6951ZM14.8065 10.8115C14.8065 10.4574 14.6429 10.1177 14.3518 9.86728C14.0607 9.61685 13.6659 9.47616 13.2542 9.47616C12.8425 9.47616 12.4477 9.61685 12.1566 9.86728C11.8655 10.1177 11.7019 10.4574 11.7019 10.8115C11.7019 11.1657 11.8655 11.5053 12.1566 11.7558C12.4477 12.0062 12.8425 12.1469 13.2542 12.1469C13.6659 12.1469 14.0607 12.0062 14.3518 11.7558C14.6429 11.5053 14.8065 11.1657 14.8065 10.8115Z" fill="black"/>
</g>
<defs>
<clipPath id="clip0_3_83">
<rect width="24.8361" height="21.3659" fill="white" transform="translate(0.836121 0.128601)"/>
</clipPath>
</defs>
</svg>
