<svg width="24" height="22" viewBox="0 0 24 22" fill="none" xmlns="http://www.w3.org/2000/svg">
<path d="M23.9917 10.9785C23.9917 11.752 23.3667 12.3578 22.6583 12.3578H21.325L21.3542 19.2414C21.3542 19.3574 21.3458 19.4734 21.3333 19.5895V20.2812C21.3333 21.2309 20.5875 22 19.6667 22H19C18.9542 22 18.9083 22 18.8625 21.9957C18.8042 22 18.7458 22 18.6875 22H17.3333H16.3333C15.4125 22 14.6667 21.2309 14.6667 20.2812V19.25V16.5C14.6667 15.7395 14.0708 15.125 13.3333 15.125H10.6667C9.92917 15.125 9.33333 15.7395 9.33333 16.5V19.25V20.2812C9.33333 21.2309 8.5875 22 7.66667 22H6.66667H5.3375C5.275 22 5.2125 21.9957 5.15 21.9914C5.1 21.9957 5.05 22 5 22H4.33333C3.4125 22 2.66667 21.2309 2.66667 20.2812V15.4688C2.66667 15.4301 2.66667 15.3871 2.67083 15.3484V12.3578H1.33333C0.583333 12.3578 0 11.7563 0 10.9785C0 10.5918 0.125 10.248 0.416667 9.94727L11.1 0.34375C11.3917 0.0429688 11.725 0 12.0167 0C12.3083 0 12.6417 0.0859375 12.8917 0.300781L23.5333 9.94727C23.8667 10.248 24.0333 10.5918 23.9917 10.9785Z" fill="white"/>
</svg>
