<svg width="25" height="23" viewBox="0 0 25 23" fill="none" xmlns="http://www.w3.org/2000/svg">
<g clip-path="url(#clip0_7_119)">
<path d="M24.0445 11.2125C24.0445 11.9923 23.4186 12.6032 22.7092 12.6032H21.374L21.4032 19.5433C21.4032 19.6602 21.3948 19.7772 21.3823 19.8942V20.5916C21.3823 21.549 20.6354 22.3245 19.7132 22.3245H19.0456C18.9997 22.3245 18.9538 22.3245 18.9079 22.3202C18.8495 22.3245 18.7911 22.3245 18.7327 22.3245H17.3765H16.3751C15.4529 22.3245 14.706 21.549 14.706 20.5916V19.5519V16.7794C14.706 16.0126 14.1093 15.3931 13.3708 15.3931H10.7003C9.96169 15.3931 9.365 16.0126 9.365 16.7794V19.5519V20.5916C9.365 21.549 8.61809 22.3245 7.69592 22.3245H6.69448H5.36339C5.3008 22.3245 5.23821 22.3202 5.17562 22.3158C5.12555 22.3202 5.07548 22.3245 5.02541 22.3245H4.35778C3.43562 22.3245 2.68871 21.549 2.68871 20.5916V15.7396C2.68871 15.7006 2.68871 15.6573 2.69288 15.6183V12.6032H1.35345C0.602364 12.6032 0.0181885 11.9967 0.0181885 11.2125C0.0181885 10.8226 0.143369 10.4761 0.435457 10.1728L11.1342 0.490462C11.4263 0.187212 11.7601 0.14389 12.0522 0.14389C12.3443 0.14389 12.6781 0.230533 12.9285 0.447141L23.5855 10.1728C23.9193 10.4761 24.0862 10.8226 24.0445 11.2125Z" fill="black"/>
</g>
<defs>
<clipPath id="clip0_7_119">
<rect width="24.0347" height="22.1806" fill="white" transform="translate(0.0181885 0.14389)"/>
</clipPath>
</defs>
</svg>
